<svg width="400" height="143" viewBox="0 0 400 143" fill="none" xmlns="http://www.w3.org/2000/svg">
<path d="M390.725 93.4257L351.35 132.8C345.416 138.735 337.349 142.075 328.962 142.075H286.887C278.145 142.075 271.038 134.968 271.038 126.226V89.8365C271.038 81.0945 278.145 73.9872 286.887 73.9872H325.302C326.404 73.9872 327.292 73.0988 327.292 71.9972C327.292 70.8955 326.404 70.0071 325.302 70.0071H76.6525C75.5508 70.0071 74.6624 70.8955 74.6624 71.9972C74.6624 73.0988 75.5508 73.9872 76.6525 73.9872H113.113C121.855 73.9872 128.962 81.0945 128.962 89.8365V126.226C128.962 134.968 121.855 142.075 113.113 142.075H71.0377C62.651 142.075 54.5842 138.735 48.6496 132.8L9.27505 93.4257C-3.09168 81.059 -3.09168 61.0163 9.27505 48.6496L48.6496 9.27505C54.5842 3.34044 62.651 0 71.0377 0H328.962C337.349 0 345.416 3.34044 351.35 9.27505L390.725 48.6496C403.092 61.0163 403.092 81.059 390.725 93.4257Z" fill="white"></path>
</svg>