<svg width="144" height="28" viewBox="0 0 144 28" fill="none" xmlns="http://www.w3.org/2000/svg">
<path d="M77.0035 18.4122L69.2436 26.1721C68.074 27.3417 66.4842 28 64.8314 28H56.5393C54.8164 28 53.4157 26.5993 53.4157 24.8764V17.7049C53.4157 15.982 54.8164 14.5813 56.5393 14.5813H64.1101C64.3272 14.5813 64.5023 14.4062 64.5023 14.1891C64.5023 13.972 64.3272 13.7969 64.1101 13.7969H15.1066C14.8894 13.7969 14.7144 13.972 14.7144 14.1891C14.7144 14.4062 14.8894 14.5813 15.1066 14.5813H22.2921C24.015 14.5813 25.4157 15.982 25.4157 17.7049V24.8764C25.4157 26.5993 24.015 28 22.2921 28H14C12.3472 28 10.7574 27.3417 9.58779 26.1721L1.82791 18.4122C-0.609305 15.975 -0.609305 12.025 1.82791 9.58779L9.58779 1.82791C10.7574 0.658329 12.3472 0 14 0H64.8314C66.4842 0 68.074 0.658329 69.2436 1.82791L77.0035 9.58779C79.4407 12.025 79.4407 15.975 77.0035 18.4122Z" fill="white"></path>
<path d="M85.8315 13.549V1.45785C85.8315 1.13932 86.0439 0.933594 86.3558 0.933594H90.5631C90.7755 0.933594 90.968 1.05305 91.0542 1.25213L92.8792 5.26703C92.9655 5.45948 93.1247 5.75811 93.3703 5.75811C93.6158 5.75811 93.7751 5.45948 93.8613 5.26703L95.6664 1.25213C95.7527 1.05968 95.9451 0.933594 96.1575 0.933594H100.365C100.683 0.933594 100.889 1.14595 100.889 1.45785V13.549C100.889 13.8675 100.677 14.0733 100.365 14.0733H98.208C97.8895 14.0733 97.6838 13.8609 97.6838 13.549V6.87299C97.6838 6.68054 97.6838 6.63408 97.3652 6.63408C96.9273 6.63408 95.4208 9.16911 95.1421 9.72655C94.8103 10.3902 94.1268 10.8282 93.3703 10.8282C92.6137 10.8282 91.9302 10.4101 91.5984 9.72655L90.019 6.58763C89.9128 6.39518 89.6009 6.58099 89.3155 6.58099C89.0169 6.58099 89.0169 6.66063 89.0169 6.83317L89.0368 13.5291C89.0368 13.8609 88.8245 14.0733 88.4927 14.0733H86.3558C86.0373 14.0733 85.8315 13.8609 85.8315 13.549Z" fill="white"></path>
<path d="M108.003 14.0802C104.692 14.0802 101.852 12.5936 101.852 8.94374C101.852 5.29384 104.951 3.66797 108.249 3.66797H113.491C113.81 3.66797 114.016 3.88033 114.016 4.19223V13.5493C114.016 13.8678 113.803 14.0735 113.491 14.0735H108.003V14.0802ZM110.704 7.11879C110.704 6.80025 110.492 6.59453 110.18 6.59453H108.163C106.497 6.59453 105.289 7.20506 105.289 9.03001C105.289 10.3241 106.338 11.22 107.605 11.22H110.18C110.499 11.22 110.704 11.0076 110.704 10.6957V7.11879Z" fill="white"></path>
<path d="M126.81 9.50072V13.5488C126.81 13.8673 126.598 14.0731 126.286 14.0731H123.904C123.585 14.0731 123.38 13.8607 123.38 13.5488V9.5339C123.38 7.8483 122.663 6.64052 120.858 6.64052H119.033C118.714 6.64052 118.509 6.85287 118.509 7.16478V13.5422C118.509 13.8607 118.296 14.0664 117.984 14.0664H115.602C115.283 14.0664 115.078 13.8541 115.078 13.5422V4.22494C115.078 3.90641 115.29 3.70068 115.602 3.70068H120.791C124.401 3.70068 126.817 5.82427 126.817 9.50072H126.81Z" fill="white"></path>
<path d="M133.433 3.58154C130.069 3.58154 127.772 5.51268 127.772 8.9635C127.772 12.4143 130.069 14.3454 133.433 14.3454C136.798 14.3454 139.412 12.5603 139.412 8.9834C139.412 5.4065 136.818 3.58818 133.433 3.58818V3.58154ZM137.567 9.62711H136.174C135.962 10.9809 135.032 11.6777 133.506 11.6777C131.98 11.6777 131.19 10.9344 131.011 9.62711H129.418C129.04 9.62711 128.741 9.32185 128.741 8.95022C128.741 8.5786 129.047 8.27333 129.418 8.27333H131.018C131.217 7.01245 132.026 6.31565 133.506 6.31565C134.986 6.31565 135.922 6.97927 136.161 8.27333H137.574C137.952 8.27333 138.251 8.5786 138.251 8.95022C138.251 9.32185 137.946 9.62711 137.574 9.62711H137.567Z" fill="white"></path>
<path d="M136.532 15.5863H139.545C140.229 15.5863 140.368 14.936 140.368 14.3785V4.26496C140.368 3.94642 140.58 3.7407 140.892 3.7407H143.169C143.487 3.7407 143.693 3.95306 143.693 4.26496V14.7103C143.693 17.9355 142.624 18.4598 139.539 18.4598H136.526C136.207 18.4598 136.001 18.2474 136.001 17.9355V16.1106C136.001 15.792 136.214 15.5863 136.526 15.5863H136.532ZM143.686 1.45785V2.33383C143.686 2.65237 143.474 2.85809 143.162 2.85809H140.899C140.58 2.85809 140.375 2.64573 140.375 2.33383V1.45785C140.375 1.13932 140.587 0.933594 140.899 0.933594H143.162C143.48 0.933594 143.686 1.14595 143.686 1.45785Z" fill="white"></path>
<path d="M85.8979 26.7416C85.8979 26.6619 85.9112 26.5889 85.951 26.5093L89.6607 18.2539C89.946 17.6234 90.6163 17.1987 91.3064 17.1987C91.9966 17.1987 92.6735 17.6102 92.9522 18.2539L96.6619 26.5093C96.7017 26.5889 96.7149 26.6619 96.7149 26.7416C96.7149 26.9871 96.5092 27.0667 96.3035 27.0667H94.4122C93.7021 27.0667 93.7685 25.1754 93.0584 25.1754H89.5545C88.8444 25.1754 88.9108 27.0667 88.2007 27.0667H86.3094C86.1037 27.0667 85.8979 26.9871 85.8979 26.7416ZM90.9415 21.4724C90.8021 21.7711 90.2845 22.7466 90.2845 23.0585C90.2845 23.304 90.4902 23.377 90.6959 23.377H91.9037C92.1094 23.377 92.3151 23.2974 92.3151 23.0585C92.3151 22.7466 91.7975 21.7711 91.6582 21.4724C91.5918 21.3331 91.479 21.1141 91.2998 21.1141C91.1206 21.1141 91.0012 21.3331 90.9415 21.4724Z" fill="white"></path>
<path d="M102.23 24.9237L103.836 24.9104H104.645C104.891 24.9104 105.043 25.063 105.043 25.3086V26.6491C105.043 26.8813 104.891 27.034 104.658 27.034C103.497 27.0472 102.356 27.0605 101.194 27.0605C98.8385 27.0605 96.6353 25.9257 96.6353 23.3044C96.6353 20.4575 98.8783 19.4554 101.4 19.4289L104.645 19.4023C104.891 19.4023 105.043 19.555 105.043 19.8005V21.1941C105.043 21.4264 104.891 21.579 104.658 21.579H101.427C100.305 21.579 99.1835 21.9506 99.1835 23.2513C99.1835 24.552 100.292 24.9237 101.413 24.9237H102.223H102.23Z" fill="white"></path>
<path d="M114.759 26.6751C114.759 26.9073 114.607 27.06 114.374 27.06H112.622C112.39 27.06 112.237 26.9073 112.237 26.6751V23.6888C112.237 22.2753 111.567 21.5652 110.14 21.5652H108.661C108.428 21.5652 108.276 21.7178 108.276 21.9501V26.6751C108.276 26.9073 108.123 27.06 107.891 27.06H106.218C105.986 27.06 105.833 26.9073 105.833 26.6751V17.7892C105.833 17.5569 105.986 17.4043 106.218 17.4043H107.891C108.807 17.4043 107.751 19.4151 108.661 19.4151H110.074C112.815 19.4151 114.759 20.8087 114.759 23.6888V26.6751Z" fill="white"></path>
<path d="M119.982 27.0599C117.546 27.0599 115.462 25.965 115.462 23.2906C115.462 20.6162 117.739 19.415 120.161 19.415H124.01C124.242 19.415 124.395 19.5677 124.395 19.7999V26.675C124.395 26.9073 124.242 27.0599 124.01 27.0599H119.982ZM121.966 21.9501C121.966 21.7178 121.813 21.5652 121.581 21.5652H120.101C118.88 21.5652 117.991 22.0164 117.991 23.3569C117.991 24.3125 118.761 24.9629 119.69 24.9629H121.581C121.813 24.9629 121.966 24.8103 121.966 24.578V21.9501Z" fill="white"></path>
<path d="M125.556 27.0602C125.324 27.0602 125.171 26.9076 125.171 26.6753V19.8268C125.171 19.5945 125.324 19.4419 125.556 19.4419H131.336C131.568 19.4419 131.721 19.5945 131.721 19.8268V21.2204C131.721 21.4527 131.568 21.6053 131.336 21.6053H128.078C127.845 21.6053 127.693 21.7579 127.693 21.9902V26.6753C127.693 26.9076 127.54 27.0602 127.308 27.0602H125.556Z" fill="white"></path>
<path d="M134.8 19.8532V26.6752C134.8 26.9074 134.647 27.0601 134.415 27.0601H132.756C132.524 27.0601 132.371 26.9074 132.371 26.6752V19.8532C132.371 19.6209 132.524 19.4683 132.756 19.4683H134.415C134.647 19.4683 134.8 19.6209 134.8 19.8532Z" fill="white"></path>
</svg>